<svg width="25" height="25" viewBox="0 0 25 25" fill="none" xmlns="http://www.w3.org/2000/svg">
<path d="M12.5098 1C18.7453 1 23.8568 6.10178 23.9971 12.4971L24 12.8027V12.8047C23.9998 18.015 20.7137 22.4171 16.1631 23.9893C16.0852 24.0026 16.0409 23.9996 16.0215 23.9951C16.0114 23.9928 16.006 23.9903 16.0039 23.9893C16.002 23.9882 16.0007 23.987 16 23.9863C15.9954 23.9818 15.9727 23.9496 15.9727 23.8857C15.9727 23.6848 15.9775 23.2566 15.9824 22.665C15.9873 22.0763 15.9922 21.3315 15.9922 20.5049C15.9922 19.7217 15.834 19.0847 15.5791 18.5938C16.6973 18.3918 17.8344 18.0122 18.7529 17.2246C19.9278 16.2172 20.665 14.6205 20.665 12.1523C20.665 10.7976 20.2363 9.65403 19.4941 8.74023C19.6655 8.14759 19.8691 6.93154 19.2793 5.41211L19.1934 5.18945L18.9658 5.11719L18.8135 5.59277C18.9665 5.11684 18.9653 5.11637 18.9648 5.11621H18.9639L18.9619 5.11523C18.9607 5.11485 18.9593 5.11466 18.958 5.11426C18.9549 5.11332 18.9509 5.11236 18.9473 5.11133C18.9401 5.10929 18.932 5.10679 18.9229 5.10449C18.9041 5.0998 18.8806 5.09474 18.8535 5.08984C18.7992 5.08006 18.7283 5.07123 18.6406 5.06738C18.4646 5.05968 18.2234 5.07247 17.9141 5.13965C17.3299 5.26651 16.5079 5.58634 15.4199 6.31543C14.6123 6.10943 13.7583 5.98462 12.9082 5.95508L12.5098 5.94824C11.528 5.94936 10.5503 6.0734 9.59863 6.31543C8.51107 5.58669 7.68948 5.26648 7.10547 5.13965C6.79617 5.0725 6.55487 5.05967 6.37891 5.06738C6.29114 5.07124 6.2203 5.08005 6.16602 5.08984C6.13906 5.09471 6.11631 5.09983 6.09766 5.10449C6.0883 5.10684 6.07952 5.10926 6.07227 5.11133C6.06876 5.11233 6.06551 5.11334 6.0625 5.11426C6.06095 5.11473 6.05904 5.11479 6.05762 5.11523L6.05566 5.11621H6.05469C6.0542 5.11637 6.05401 5.11677 6.20703 5.59277L6.05371 5.11719L5.82715 5.18945L5.74023 5.41211C5.14924 6.93476 5.35479 8.15291 5.52637 8.74414C4.80303 9.65258 4.35449 10.7931 4.35449 12.1523C4.35452 14.62 5.09132 16.2216 6.2627 17.2314C7.18035 18.0225 8.316 18.4028 9.43066 18.5996C9.2958 18.8646 9.18662 19.1711 9.11816 19.5176C8.81438 19.6308 8.41508 19.7286 8.00586 19.6904C7.51454 19.6445 6.95806 19.4017 6.50195 18.6055H6.50098C6.49903 18.602 6.49684 18.5975 6.49414 18.5928C6.48702 18.5803 6.47718 18.5632 6.46484 18.543C6.44007 18.5023 6.40441 18.4464 6.3584 18.3809C6.26659 18.2501 6.12964 18.0759 5.94824 17.8975C5.58869 17.5439 5.02023 17.1445 4.25195 17.0928L4.23535 17.0918H4.19434C4.18201 17.0921 4.1654 17.0928 4.14551 17.0938C4.10612 17.0957 4.05134 17.0996 3.98926 17.1074C3.88478 17.1207 3.68352 17.153 3.51074 17.2568C3.41837 17.3124 3.29236 17.4135 3.22168 17.583C3.14529 17.7662 3.1657 17.9509 3.22754 18.1006C3.33176 18.3527 3.57543 18.5644 3.85449 18.7568L3.89062 18.7812L3.92871 18.7979C3.92825 18.7988 3.92874 18.7988 3.92871 18.7988H3.92773L3.92578 18.7979C3.92471 18.7973 3.92356 18.7962 3.92285 18.7959C3.92158 18.7953 3.9209 18.7949 3.9209 18.7949C3.92091 18.7949 3.92347 18.7969 3.92871 18.7998C3.93935 18.8058 3.96027 18.8181 3.98926 18.8379C4.04713 18.8774 4.13816 18.9471 4.24707 19.0576C4.46169 19.2754 4.75349 19.6588 4.99609 20.2959L5 20.3057C5.00273 20.3136 5.00631 20.324 5.01074 20.3359C5.01965 20.36 5.03217 20.3924 5.04883 20.4307C5.08209 20.5071 5.13281 20.6102 5.2041 20.7285C5.34672 20.965 5.5771 21.267 5.93066 21.541C6.57206 22.038 7.55603 22.3928 9.01172 22.1982C9.01361 22.4964 9.01459 22.7786 9.01758 23.0264C9.02255 23.438 9.02733 23.7469 9.02734 23.8857C9.02734 23.9499 9.00436 23.9821 9 23.9863C8.99928 23.987 8.99798 23.9873 8.99609 23.9883C8.9942 23.9893 8.98914 23.9927 8.97852 23.9951C8.95898 23.9996 8.91451 24.0029 8.83594 23.9893C4.28577 22.4173 1.00021 18.0147 1 12.8047C1 6.26519 6.15613 1.00009 12.5098 1Z" fill="#007FFD" stroke="#007FFD"/>
</svg>
