<svg width="24" height="25" viewBox="0 0 24 25" fill="none" xmlns="http://www.w3.org/2000/svg">
<path d="M22.0974 12.208C22.1063 12.3943 22.1111 12.583 22.1111 12.7734C22.111 15.3072 21.3769 17.4368 20.1296 19.0576L19.2937 18.4219C19.9849 17.5257 20.467 16.4779 20.6902 15.3252L21.1257 13.0762H14.1345V12.208H22.0974Z" fill="#007FFD" stroke="#007FFD" stroke-width="3.77953"/>
<path d="M5.38252 14.7842L4.4862 15.4566L1.31348 17.8784C3.32839 21.7949 7.45812 24.5005 12.2449 24.5005C15.5511 24.5005 18.323 23.4313 20.3491 21.5986L16.3749 18.5766C15.2839 19.2967 13.8924 19.7331 12.2449 19.7331C9.06113 19.7331 6.3561 17.6276 5.38753 14.7911L5.38252 14.7842Z" fill="#007FFD"/>
<path d="M1.3135 7.12207C0.478633 8.7366 0 10.5585 0 12.5003C0 14.4422 0.478633 16.2641 1.3135 17.8786C1.3135 17.8894 5.38794 14.7803 5.38794 14.7803C5.14304 14.0603 4.99828 13.2967 4.99828 12.5002C4.99828 11.7037 5.14304 10.9401 5.38794 10.2201L1.3135 7.12207Z" fill="#007FFD"/>
<path d="M12.2452 5.27832C14.0486 5.27832 15.6516 5.88923 16.9318 7.06747L20.4384 3.63104C18.3122 1.6892 15.5515 0.5 12.2452 0.5C7.45837 0.5 3.32839 3.19462 1.31348 7.12202L5.38779 10.2203C6.35623 7.38382 9.06138 5.27832 12.2452 5.27832Z" fill="#007FFD"/>
</svg>
