<svg width="25" height="25" viewBox="0 0 25 25" fill="none" xmlns="http://www.w3.org/2000/svg">
<path d="M4.48008 8.723C3.54509 9.82755 2.84851 11.1135 2.43408 12.5C3.72608 16.839 7.74408 20 12.5001 20C13.4931 20 14.4531 19.862 15.3631 19.605M6.72808 6.728C8.4407 5.59781 10.4482 4.99682 12.5001 5C17.2561 5 21.2731 8.162 22.5651 12.499C21.857 14.868 20.3371 16.912 18.2721 18.272M6.72808 6.728L3.50008 3.5M6.72808 6.728L10.3781 10.378M18.2721 18.272L21.5001 21.5M18.2721 18.272L14.6221 14.622C14.9007 14.3434 15.1217 14.0127 15.2725 13.6486C15.4232 13.2846 15.5008 12.8945 15.5008 12.5005C15.5008 12.1065 15.4232 11.7164 15.2725 11.3524C15.1217 10.9883 14.9007 10.6576 14.6221 10.379C14.3435 10.1004 14.0127 9.8794 13.6487 9.72863C13.2847 9.57785 12.8946 9.50025 12.5006 9.50025C12.1066 9.50025 11.7164 9.57785 11.3524 9.72863C10.9884 9.8794 10.6577 10.1004 10.3791 10.379M14.6211 14.621L10.3801 10.38" stroke="#656B75" stroke-width="1.5" stroke-linecap="round" stroke-linejoin="round"/>
</svg>
