<svg width="25" height="25" viewBox="0 0 25 25" fill="none" xmlns="http://www.w3.org/2000/svg">
<path d="M2.53606 12.822C2.46617 12.6147 2.46617 12.3903 2.53606 12.183C3.92306 8.01 7.86006 5 12.5001 5C17.1381 5 21.0731 8.007 22.4631 12.178C22.5331 12.385 22.5331 12.609 22.4631 12.817C21.0771 16.99 17.1401 20 12.5001 20C7.86206 20 3.92606 16.993 2.53606 12.822Z" stroke="#656B75" stroke-width="1.5" stroke-linecap="round" stroke-linejoin="round"/>
<path d="M15.5 12.5C15.5 13.2956 15.1839 14.0587 14.6213 14.6213C14.0587 15.1839 13.2956 15.5 12.5 15.5C11.7044 15.5 10.9413 15.1839 10.3787 14.6213C9.81607 14.0587 9.5 13.2956 9.5 12.5C9.5 11.7044 9.81607 10.9413 10.3787 10.3787C10.9413 9.81607 11.7044 9.5 12.5 9.5C13.2956 9.5 14.0587 9.81607 14.6213 10.3787C15.1839 10.9413 15.5 11.7044 15.5 12.5Z" stroke="#656B75" stroke-width="1.5" stroke-linecap="round" stroke-linejoin="round"/>
</svg>
