<svg width="28" height="20" viewBox="0 0 28 20" fill="none" xmlns="http://www.w3.org/2000/svg">
<rect x="0.25" y="0.25" width="27.5" height="19.5" rx="1.75" fill="white" stroke="#F5F5F5" stroke-width="0.5"/>
<mask id="mask0_2144_4717" style="mask-type:luminance" maskUnits="userSpaceOnUse" x="0" y="0" width="28" height="20">
<rect x="0.25" y="0.25" width="27.5" height="19.5" rx="1.75" fill="white" stroke="white" stroke-width="0.5"/>
</mask>
<g mask="url(#mask0_2144_4717)">
<path d="M28 9.33398V20.001H0L13.333 10.001L12.4434 9.33398H28Z" fill="#DD1C34"/>
<path d="M28 0V9.33301H12.4434L0 0H28Z" fill="#0D4BC3"/>
<path d="M2 15.999C2.36804 15.9992 2.66602 16.2979 2.66602 16.666C2.66602 17.0341 2.36804 17.3328 2 17.333C1.63181 17.333 1.33301 17.0342 1.33301 16.666C1.33301 16.2978 1.63181 15.999 2 15.999ZM5.50879 8.96582C5.57815 9.02242 5.64152 9.08601 5.69824 9.15527L7.74609 8.72363L5.99316 9.86426C5.99762 9.90857 5.99999 9.95354 6 9.99902C6 10.0444 5.99759 10.0896 5.99316 10.1338L7.74609 11.2754L5.69922 10.8418C5.64229 10.9115 5.57851 10.9753 5.50879 11.0322L5.94238 13.0791L4.80078 11.3262C4.75657 11.3306 4.71139 11.333 4.66602 11.333C4.62053 11.333 4.57556 11.3306 4.53125 11.3262L3.39062 13.0791L3.82227 11.0312C3.75301 10.9745 3.68942 10.9112 3.63281 10.8418L1.58691 11.2754L3.33887 10.1338C3.33445 10.0896 3.33301 10.0444 3.33301 9.99902C3.33302 9.95356 3.33441 9.90855 3.33887 9.86426L1.58691 8.72363L3.63379 9.15625C3.69046 9.08693 3.75392 9.02347 3.82324 8.9668L3.39062 6.91992L4.53125 8.67188C4.57554 8.66742 4.62056 8.66603 4.66602 8.66602C4.71137 8.66602 4.7566 8.66745 4.80078 8.67188L5.94238 6.91992L5.50879 8.96582ZM10 9.33301C10.3679 9.33318 10.6658 9.63109 10.666 9.99902C10.666 10.3671 10.368 10.6658 10 10.666C9.63181 10.666 9.33301 10.3672 9.33301 9.99902C9.33318 9.63098 9.63192 9.33301 10 9.33301ZM2 2.66602C2.36804 2.66619 2.66602 2.96493 2.66602 3.33301C2.66584 3.70094 2.36793 3.99885 2 3.99902C1.63192 3.99902 1.33318 3.70105 1.33301 3.33301C1.33301 2.96482 1.63181 2.66602 2 2.66602Z" fill="#FDD64D"/>
</g>
</svg>
