<svg width="28" height="20" viewBox="0 0 28 20" fill="none" xmlns="http://www.w3.org/2000/svg">
<rect width="28" height="20" rx="2" fill="white"/>
<mask id="mask0_2144_5140" style="mask-type:luminance" maskUnits="userSpaceOnUse" x="0" y="0" width="28" height="20">
<rect width="28" height="20" rx="2" fill="white"/>
</mask>
<g mask="url(#mask0_2144_5140)">
<path d="M28 20H0V18.667H28V20ZM28 17.333H0V16H28V17.333ZM28 14.667H0V13.333H28V14.667ZM28 12H0V10.667H28V12ZM28 9.33301H0V8H28V9.33301ZM28 6.66699H0V5.33301H28V6.66699ZM28 4H0V2.66699H28V4ZM28 1.33301H0V0H28V1.33301Z" fill="#D02F44"/>
<rect width="12" height="9.33333" fill="#46467F"/>
<g filter="url(#filter0_d_2144_5140)">
<path d="M2 6.66699C2.36804 6.66717 2.66602 6.9659 2.66602 7.33398C2.66602 7.70207 2.36804 8.0008 2 8.00098C1.63181 8.00098 1.33301 7.70217 1.33301 7.33398C1.33301 6.96579 1.63181 6.66699 2 6.66699ZM4.66602 6.66699C5.03421 6.66699 5.33301 6.96579 5.33301 7.33398C5.33301 7.70217 5.03421 8.00098 4.66602 8.00098C4.29798 8.0008 4 7.70207 4 7.33398C4 6.9659 4.29798 6.66717 4.66602 6.66699ZM7.33301 6.66699C7.7012 6.66699 8 6.96579 8 7.33398C8 7.70217 7.7012 8.00098 7.33301 8.00098C6.96482 8.00098 6.66602 7.70217 6.66602 7.33398C6.66602 6.96579 6.96482 6.66699 7.33301 6.66699ZM10 6.66699C10.368 6.66717 10.666 6.9659 10.666 7.33398C10.666 7.70207 10.368 8.0008 10 8.00098C9.63181 8.00098 9.33301 7.70217 9.33301 7.33398C9.33301 6.96579 9.63181 6.66699 10 6.66699ZM3.33301 5.33398C3.7012 5.33398 4 5.63279 4 6.00098C3.99982 6.36902 3.70109 6.66699 3.33301 6.66699C2.96493 6.66699 2.66619 6.36902 2.66602 6.00098C2.66602 5.63279 2.96482 5.33398 3.33301 5.33398ZM6 5.33398C6.36804 5.33416 6.66602 5.63289 6.66602 6.00098C6.66584 6.36891 6.36793 6.66682 6 6.66699C5.63192 6.66699 5.33318 6.36902 5.33301 6.00098C5.33301 5.63279 5.63181 5.33398 6 5.33398ZM8.66602 5.33398C9.03421 5.33398 9.33301 5.63279 9.33301 6.00098C9.33283 6.36902 9.0341 6.66699 8.66602 6.66699C8.29808 6.66682 8.00018 6.36891 8 6.00098C8 5.63289 8.29798 5.33416 8.66602 5.33398ZM2 4.00098C2.36793 4.00115 2.66584 4.29906 2.66602 4.66699C2.66602 5.03507 2.36804 5.33381 2 5.33398C1.63181 5.33398 1.33301 5.03518 1.33301 4.66699C1.33318 4.29895 1.63192 4.00098 2 4.00098ZM4.66602 4.00098C5.0341 4.00098 5.33283 4.29895 5.33301 4.66699C5.33301 5.03518 5.03421 5.33398 4.66602 5.33398C4.29798 5.33381 4 5.03507 4 4.66699C4.00018 4.29906 4.29808 4.00115 4.66602 4.00098ZM7.33301 4.00098C7.70109 4.00098 7.99982 4.29895 8 4.66699C8 5.03518 7.7012 5.33398 7.33301 5.33398C6.96482 5.33398 6.66602 5.03518 6.66602 4.66699C6.66619 4.29895 6.96493 4.00098 7.33301 4.00098ZM10 4.00098C10.3679 4.00115 10.6658 4.29906 10.666 4.66699C10.666 5.03507 10.368 5.33381 10 5.33398C9.63181 5.33398 9.33301 5.03518 9.33301 4.66699C9.33318 4.29895 9.63192 4.00098 10 4.00098ZM3.33301 2.66699C3.7012 2.66699 4 2.96579 4 3.33398C4 3.70217 3.7012 4.00098 3.33301 4.00098C2.96482 4.00098 2.66602 3.70217 2.66602 3.33398C2.66602 2.96579 2.96482 2.66699 3.33301 2.66699ZM6 2.66699C6.36804 2.66717 6.66602 2.9659 6.66602 3.33398C6.66602 3.70207 6.36804 4.0008 6 4.00098C5.63181 4.00098 5.33301 3.70217 5.33301 3.33398C5.33301 2.96579 5.63181 2.66699 6 2.66699ZM8.66602 2.66699C9.03421 2.66699 9.33301 2.96579 9.33301 3.33398C9.33301 3.70217 9.03421 4.00098 8.66602 4.00098C8.29798 4.0008 8 3.70207 8 3.33398C8 2.9659 8.29798 2.66717 8.66602 2.66699ZM2 1.33398C2.36804 1.33416 2.66602 1.6329 2.66602 2.00098C2.66584 2.36891 2.36793 2.66682 2 2.66699C1.63192 2.66699 1.33318 2.36902 1.33301 2.00098C1.33301 1.63279 1.63181 1.33398 2 1.33398ZM4.66602 1.33398C5.03421 1.33398 5.33301 1.63279 5.33301 2.00098C5.33283 2.36902 5.0341 2.66699 4.66602 2.66699C4.29808 2.66682 4.00018 2.36891 4 2.00098C4 1.6329 4.29798 1.33416 4.66602 1.33398ZM7.33301 1.33398C7.7012 1.33398 8 1.63279 8 2.00098C7.99982 2.36902 7.70109 2.66699 7.33301 2.66699C6.96493 2.66699 6.66619 2.36902 6.66602 2.00098C6.66602 1.63279 6.96482 1.33398 7.33301 1.33398ZM10 1.33398C10.368 1.33416 10.666 1.6329 10.666 2.00098C10.6658 2.36891 10.3679 2.66682 10 2.66699C9.63192 2.66699 9.33318 2.36902 9.33301 2.00098C9.33301 1.63279 9.63181 1.33398 10 1.33398Z" fill="url(#paint0_linear_2144_5140)"/>
</g>
</g>
<defs>
<filter id="filter0_d_2144_5140" x="1.33301" y="1.33398" width="9.33301" height="7.66602" filterUnits="userSpaceOnUse" color-interpolation-filters="sRGB">
<feFlood flood-opacity="0" result="BackgroundImageFix"/>
<feColorMatrix in="SourceAlpha" type="matrix" values="0 0 0 0 0 0 0 0 0 0 0 0 0 0 0 0 0 0 127 0" result="hardAlpha"/>
<feOffset dy="1"/>
<feColorMatrix type="matrix" values="0 0 0 0 0 0 0 0 0 0 0 0 0 0 0 0 0 0 0.06 0"/>
<feBlend mode="normal" in2="BackgroundImageFix" result="effect1_dropShadow_2144_5140"/>
<feBlend mode="normal" in="SourceGraphic" in2="effect1_dropShadow_2144_5140" result="shape"/>
</filter>
<linearGradient id="paint0_linear_2144_5140" x1="1.33301" y1="1.33398" x2="1.33301" y2="8.00098" gradientUnits="userSpaceOnUse">
<stop stop-color="white"/>
<stop offset="1" stop-color="#F0F0F0"/>
</linearGradient>
</defs>
</svg>
